<svg xmlns="http://www.w3.org/2000/svg" viewBox="0 0 210 50"><defs><style>.cls-1{fill:#3a3a3a;}.cls-2{fill:#52acdd;}.cls-2,.cls-3,.cls-4{stroke:#fff;stroke-linecap:round;stroke-linejoin:round;stroke-width:0.81px;}.cls-3{fill:#f0c71b;}.cls-4{fill:#da401b;}.cls-5{fill:#fff;}</style></defs><title>main_pic_mobilemobile--logo</title><g id="圖層_44" data-name="圖層 44"><g id="主標"><path class="cls-1" d="M37.24,32.48h8.69V34.8H35V31.41l3-7.17h4.74V17.55h-7V15.34H45v11H39.52l-2.28,5.48Z"/><path class="cls-1" d="M48.13,15.34H59V34.8H48.13Zm8.61,17.4V17.41H50.31V29.29l-.14.59,4-9.65h2.21L51.13,32.74Z"/><path class="cls-1" d="M60.61,15.34h6V34.8H64.28V17.58H60.61Z"/><path class="cls-1" d="M82.12,28V34.8H69.65V24.32h1.58l-.45-1.07v-8h8.89v9.09h.9ZM71.85,32.74h8.07V28.11l-.76-1.81H71.85Zm5.59-15.42H72.92v5.82l.57,1.3h4Z"/><path class="cls-1" d="M191.88,29.1V31H189v3.66h-1.91V31h-8.17V29.1h8.17V27.91H189V29.1Zm-11,2.66h2l.91,2.16-1.67.69Z"/><path class="cls-1" d="M186.11,22.42v3.81l2.62-.31-.88-2.35h1.84l1.78,4.72-1.6.66-.65-1.76-9.12,1.09L179.26,27l5.07-.61v-4Z"/><path class="cls-1" d="M186.1,24.87h-1.76m0,0H180V18.56h4.38v-1h-5.47V16h5.47V14.94h1.76V16h5.47v1.57H186.1v1h4.38v6.31H186.1m-1.76-4.81h-2.63V21h2.63Zm-2.63,3.32h2.63v-.95h-2.63Zm7-3.32H186.1V21h2.61Zm-2.61,3.32h2.61v-.95H186.1Z"/><path class="cls-1" d="M157.73,33.89l-1.87,1-5.43-7.43L145,34.87l-1.82-1,6.23-8.61V21.35h-6v-2h6V15.8h2v3.58h6.12v2h-6.12v4Z"/><path class="cls-1" d="M167,32.73H176v1.92h-9.46l-1.88-1.8-2.18,2.21-1.83-1,2.59-2.58V22.91h-1.9v-1.8h3.85v9.82Zm-1.42-14.54v1.69h-4.51V18.19Zm3.41,0v-.85h-2.63V16h4.32v3.58h-2.26v.83h2.64V21.8h-4.32V18.21Zm6.6,9.23v1.64h-9.23V27.44h2.11v-1.9H166.8V23.91h1.68V22.44h1.78v1.47h1.35V22.44h1.78v1.47H175v1.63h-1.64v1.9Zm-7.26,4.77-1.62-.85L168,29.7h2.23Zm1.92-6.67v1.9h1.35v-1.9Zm3.34-7.33v-.85H171V16h4.32v3.58H173v.83h2.59V21.8h-4.27V18.21Zm-.19,14-1.7-2.53h2.23l1.11,1.68Z"/><path class="cls-1" d="M209.06,16v1.9H197.13V32.73h11.93v1.92H195.14V16ZM198,32V25.33h4.84V32Zm1.52-5.22v3.8h1.75v-3.8Zm6.69-8v5.7h-6.67v-5.7Zm-1.78,4.27V20.21H201.3v2.84Zm4,2.28V32h-4.82V25.33Zm-1.57,5.22v-3.8h-1.73v3.8Z"/><path class="cls-1" d="M102.17,32.64H104v2.13H99.89V20.55H97.21L90,35.1l-1.86-1,6.67-13.57H89.13V18.49h6.72l1.76-3.56H100l-1.76,3.56h4Z"/><path class="cls-1" d="M113.69,14.9l8,6.2-2.13,1.13-5.87-4.54-5.9,4.56-2.1-1.13ZM108,35V25.29h11.44V35Zm.73-13.17h10v1.9h-10Zm1.4,5.42V33h7.18V27.25Z"/><path class="cls-1" d="M137.58,20.57l1.23,1.73v2.44H123.66V22.55h12.82l-.73-1Z"/><g id="logo"><polygon class="cls-2" points="32.05 16.61 17.53 8.23 3 16.61 17.53 25 32.05 16.61"/><polygon class="cls-3" points="32.05 16.61 17.53 25 17.53 41.77 32.05 33.39 32.05 16.61"/><polygon class="cls-4" points="3 16.61 17.53 25 17.53 41.77 3 33.39 3 16.61"/><polygon class="cls-1" points="21.36 14.87 14.51 18.83 13.69 18.36 20.55 14.4 21.36 14.87"/><path class="cls-5" d="M31,31.82s0,0,0-.05v0s0,0,0-.05h0s0,0,0-.07l-.05-.05s0,0-.06-.05l-.06,0h-.28a.09.09,0,0,0-.06,0l-.06,0h0l0,0,0,0v0l0,.05,0,.08h0v0a.65.65,0,0,1-.47.57l-.17,0a.64.64,0,0,1-.51-.26.39.39,0,0,0-.32-.17.42.42,0,0,0-.34.18h0l0,.06v0h0s0,0,0,0v0h0s0,0,0,0a.2.2,0,0,1,0,.05v0s0,0,0,0h0a0,0,0,0,0,0,0v0s0,0,0,.05a1.42,1.42,0,0,0,1.15.59,1.58,1.58,0,0,0,.38,0,1.43,1.43,0,0,0,1-1.26v-.05Z"/><path class="cls-5" d="M29.6,28.69A3.27,3.27,0,1,0,32.87,32,3.27,3.27,0,0,0,29.6,28.69Zm0,5.3a2,2,0,1,1,2-2A2,2,0,0,1,29.6,34Z"/></g></g></g></svg>