<?xml version="1.0" encoding="utf-8"?>
<!-- Generator: Adobe Illustrator 22.0.1, SVG Export Plug-In . SVG Version: 6.00 Build 0)  -->
<svg version="1.1" id="圖層_1" xmlns="http://www.w3.org/2000/svg" xmlns:xlink="http://www.w3.org/1999/xlink" x="0px" y="0px"
	 viewBox="0 0 249.9 86.8" style="enable-background:new 0 0 249.9 86.8;" xml:space="preserve">
<style type="text/css">
	.st0{fill:#F4EA31;}
	.st1{fill:#0B0F1C;}
	.st2{fill-rule:evenodd;clip-rule:evenodd;fill:#0B0F1C;}
	.st3{fill:#231815;}
	.st4{fill:#B8D447;}
</style>
<g>
	<g>
		<path class="st0" d="M3.4,41.1c0,0,1.1-3.5,6.5-7.5c4.3-3.3,8.3-15.7,17.9-21.5C33.7,8.5,44.9,2.2,59,3.3
			c14.2,1.1,22.6,4.5,23.5,4.9c5.6,2.7,11.4,6.9,13.5,9.2c2.1,2.3,8.9,9.6,12,10.9c3.1,1.3,10.1,3.1,9.6,8.8s-6,11.7-7.3,14.5
			c-1.3,2.9-5.7,14.9-20.2,23.3c-6.5,3.8-20,8-29.9,7.9c-32-0.3-47.1-21.2-48.4-23.2C9.1,56,8.9,55.4,4.5,52
			C2.5,50.5,3.4,41.1,3.4,41.1z"/>
		<path class="st1" d="M60.5,85.1h-0.3C27.2,84.8,11.6,63.4,9.9,61l-0.4-0.5c-2.2-3.2-2.5-3.7-6.4-6.8c-2.4-1.9-2.3-8-1.9-12.8
			l0-0.2l0.1-0.2c0.1-0.4,1.5-4.2,7.2-8.6c1.3-1,2.9-3.5,4.5-6.2c3.2-5.1,7.2-11.5,13.6-15.5C33.2,6.2,43.2,1,55.8,1
			c1.1,0,2.3,0,3.4,0.1c15.6,1.2,24.2,5.1,24.3,5.1c6,2.8,11.9,7.2,14.2,9.7c3.3,3.7,9,9.4,11.2,10.4c0.4,0.2,0.8,0.3,1.3,0.5
			c3.6,1.4,10.3,3.9,9.7,10.5c-0.4,4.5-3.4,9-5.6,12.2c-0.8,1.2-1.6,2.3-1.9,3c-0.1,0.2-0.2,0.4-0.3,0.7
			c-1.6,3.8-6.7,15.4-20.8,23.6C84.4,80.9,70.7,85.1,60.5,85.1z M5.9,50.4c4.2,3.3,4.9,4.2,7.2,7.7l0.4,0.5
			c1.5,2.2,15.9,22,46.7,22.2l0.3,0c9.2,0,22.2-3.9,28.5-7.6c12.9-7.5,17.3-17.7,19-21.6c0.1-0.3,0.2-0.6,0.3-0.8
			c0.5-1,1.3-2.2,2.2-3.7c1.9-2.8,4.5-6.7,4.8-10.2c0.3-3.1-3-4.6-6.9-6.1c-0.5-0.2-1-0.4-1.4-0.5c-4-1.7-11.9-10.5-12.8-11.5
			c-1.7-1.9-7.1-6-12.8-8.7c-0.1,0-8.2-3.6-22.7-4.7c-1-0.1-2.1-0.1-3.1-0.1c-11.5,0-20.8,4.9-26.8,8.5c-5.6,3.4-9.2,9.3-12.2,14
			c-2,3.1-3.6,5.9-5.6,7.3c-3.9,3-5.3,5.6-5.6,6.3C5.2,45.4,5.4,49.4,5.9,50.4z"/>
	</g>
	<path class="st2" d="M85.7,38.1c1.1,0.8,2.2,1.6,3.4,2.4c1.4,0.6,2,1.7,2.6,3c0.4,2.3,0.1,2.8-1.9,2.6c-0.6,0-1.1-1.2-1.7,0
		c-0.9,1.7-2,3.4-3.3,4.9c-4.3,4.6-9.7,7.6-15.6,9.7c-0.7,0-1.3,0.4-1.9,0.6c-2.6,0.9-5.3,1.2-8,1.5c-1.7,0.2-3.3,0-5-0.1
		c-0.4,0-0.8-0.1-1.2-0.1c-4.3-0.1-8.1-1.9-11.9-3.4c-3.5-1.6-6.3-4.2-8.8-7.2c-0.6-0.7-1-1.1-2.1-0.6c-1.2,0.6-1.9-0.1-2-1.8
		c0.2-1,0.7-1.9,1-2.9c0.7-0.8,1.2-1.7,1.8-2.6c0.4-0.6,1-1,1.7-1.2c1.9-0.9,2.5-0.7,2.9,0.9c-0.2,0.6-0.7,1.1-0.7,1.8
		c-0.2,0.2-0.1,0.5-0.2,0.7c-0.7,0.8-0.7,1.5,0.1,2.2c0.4,0.3,0.6,0.7,1,1c0.7,0.6,1.5,1.1,2.2,1.6c0.2,0.2,0.4,0.4,0.7,0.6
		c1.3,1,2.6,1.8,4.1,2.4c4.1,1.5,8.3,2.7,12.8,2.9c5.4,0.2,10.4-1.1,15.4-3c4.1-1.6,7.6-4.1,10.8-7.1c0.6-0.6,1-1.5,1.6-2
		c0.5-0.4,0.9-0.9,1.3-1.4c0.1-0.2,0.2-0.5,0.2-0.7c-0.2-0.8-1-1.2-1.3-1.9c-0.3-0.6-0.8-1.1-0.4-1.9C83.6,37.3,84.8,38.2,85.7,38.1
		z"/>
	<path class="st2" d="M14.4,41c0,0.7-0.7,1.3-1.6,1.3c-0.9,0-1.6-0.6-1.6-1.3c0-0.7,0.7-1.3,1.6-1.3C13.6,39.7,14.4,40.3,14.4,41z"
		/>
	<path class="st2" d="M20.1,44.1c0,1-1,1.7-2.2,1.7c-1.2,0-2.2-0.8-2.2-1.7c0-1,1-1.7,2.2-1.7C19.1,42.4,20.1,43.1,20.1,44.1z"/>
	<path class="st2" d="M108.4,35.4c0,1-1,1.7-2.2,1.7c-1.2,0-2.2-0.8-2.2-1.7c0-1,1-1.7,2.2-1.7C107.4,33.7,108.4,34.4,108.4,35.4z"
		/>
	<path class="st2" d="M101.2,33.2c0,0.6-0.6,1-1.3,1c-0.7,0-1.3-0.5-1.3-1c0-0.6,0.6-1,1.3-1C100.6,32.2,101.2,32.6,101.2,33.2z"/>
	<path class="st2" d="M105.8,43.2c0,0.6-0.6,1-1.3,1c-0.7,0-1.3-0.5-1.3-1c0-0.6,0.6-1,1.3-1C105.2,42.2,105.8,42.6,105.8,43.2z"/>
	<path class="st2" d="M92.1,33.1c0,1.6-1.3,2.9-2.9,2.9c-1.6,0-2.9-1.3-2.9-2.9c0-1.6,1.3-2.9,2.9-2.9
		C90.8,30.2,92.1,31.5,92.1,33.1z"/>
	<path class="st2" d="M31.1,35.4c0,1.6-1.3,2.9-2.9,2.9c-1.6,0-2.9-1.3-2.9-2.9c0-1.6,1.3-2.9,2.9-2.9
		C29.8,32.5,31.1,33.8,31.1,35.4z"/>
</g>
<path class="st0" d="M213.5,68.5c0,0,0.9-0.3,1.2-0.1c0.3,0.2,1.4,0.2,1.9,0.2c0.5,0,0.8,0,1.5,0.3c0.7,0.3,2.4,1.3,2.7,2.8
	c0.3,1.5,0.4,2.1,0.4,2.2c0.1,0.1,0,1.4-0.2,1.7c-0.2,0.3-0.9,1.4-0.9,1.7c0,0.4,0.1,1.1-0.6,1.4c-0.7,0.3-1.7,0.2-2.1,0.2
	c-0.4,0.1-2.4,0.3-3.8-0.7c-0.7-0.5-1.5-1.3-2-2.2c-0.5-1-0.8-2.1-0.9-2.8c-0.3-1.4,0.7-2.7,0.9-2.9c0.2-0.2,0.5-0.9,0.6-1.2
	C212.3,69,213.5,68.5,213.5,68.5z"/>
<path class="st3" d="M146.8,20.3c-2.1,1.1-4.2,2.2-6.3,3.3c-0.5-0.8-0.9-1.6-1.3-2.5c3.2-1.7,6.4-3.3,9.6-4.6
	c0.5,0.5,0.9,1.2,1.2,2.2c-0.3,0.1-0.6,0.2-0.9,0.4c1,1.1,2,2.3,2.9,3.4c-0.5,0.6-1.1,1.1-2,1.4C148.9,22.7,147.8,21.5,146.8,20.3z
	 M144.8,38.4c-0.1-1.8-0.2-3.7-0.2-5.8c0-0.2,0-0.4,0-0.6c-1.7,0-3.1-0.1-4-0.2c-0.1-0.3-0.2-0.7-0.2-1.1c0-0.4,0-0.7,0.1-1
	c1.2,0,2.5-0.1,4.1-0.2c0-0.8,0.1-1.7,0.1-2.5c-1-0.1-2-0.2-2.9-0.3c0-0.5,0-1,0-1.4c0-0.3,0-0.6,0.1-1c2.1,0,4.6,0.2,7.4,0.5
	c0,0.7-0.1,1.5-0.2,2.4c-0.6,0-1.2-0.1-1.9-0.2c0,0.9,0.1,1.6,0.1,2.4c1.5,0,2.5,0.1,3.1,0.2c0,0.3,0,0.7,0,1c0,0.3,0,0.7,0,1
	c-0.2,0.2-1.3,0.3-3.1,0.3c0,0.2,0,0.3,0,0.4c0,2.1-0.1,4-0.2,5.8c0.8,0,1.6,0,2.4,0c0.1,0.3,0.2,0.6,0.2,0.9c0,0.4-0.1,0.8-0.2,1.1
	c-1.1,0.3-3.5,0.6-7,0.9c-0.4-0.5-0.5-1.3-0.5-2.4C143,38.7,143.9,38.6,144.8,38.4z M142,34.4c0.8,0.5,1.6,1.3,2.3,2.2
	c-0.3,0.7-0.7,1.3-1.3,1.7c-0.8-0.6-1.6-1.3-2.3-2C141.2,35.5,141.6,34.9,142,34.4z M149.4,33.6c0.7,0.1,1.4,0.3,2.1,0.6
	c-0.2,1.3-0.5,2.3-1.1,3c-0.5,0-1.2-0.2-2-0.6C148.5,35.5,148.9,34.6,149.4,33.6z M156.7,31.9c1,0.6,2,1.2,3.1,1.9
	c-0.5,1.2-0.9,2.4-1.4,3.5c3.1,0.8,6.2,1.5,9.3,2.2c0,0.7-0.1,1.3-0.4,1.9c-3.4-0.3-6.8-0.9-10-1.6c-0.4,1-0.9,2-1.4,3
	c-0.9-0.2-1.6-0.5-2.1-0.9c0.3-0.9,0.6-1.8,1-2.7c-1-0.3-2.1-0.6-3.1-0.9c0.2-0.9,0.4-1.7,0.7-2.4c1.1,0.3,2.2,0.6,3.3,0.8
	c0.3-0.6,0.6-1.3,0.9-2c-1-0.6-2.1-1.2-3.1-1.7c0.4-2,0.9-3.9,1.4-5.9c-1.4-0.1-2.6-0.3-3.6-0.5c0.1-0.8,0.2-1.5,0.4-2.2
	c2.3,0.3,4.5,0.7,6.6,1C157.9,27.7,157.3,29.8,156.7,31.9z M172.6,16c0.2,0.8,0.4,2.1,0.4,3.8c0.4,0,0.9,0.1,1.4,0.2
	c0,0.3,0,0.6,0,0.9c0,0.4,0,0.8-0.1,1c-0.4,0-0.9,0-1.3,0c-0.1,1.5-0.2,2.6-0.5,3.3c-0.6,0.4-1.9,0.6-4,0.6c-0.6,0-1.3,0-1.9,0
	c0,0.5,0,1.1,0,1.7c1-0.1,2-0.2,3-0.2c0.1,0.8,0.2,1.5,0.2,2.4c-1.1,0.1-2.2,0.2-3.2,0.3c0,0.3,0,0.7,0,1c1.3-0.1,2.6-0.2,3.9-0.2
	c0.1,0.3,0.1,0.7,0.1,1.1c0,0.4,0,0.8,0,1.1c-1.3,0.1-2.6,0.2-4,0.3c0,1.2,0,2.4,0,3.6c-0.3,0-0.7,0-1.3,0c-0.4,0-0.8-0.1-1.2-0.2
	c-0.1-1-0.1-2.1-0.2-3.3c-1.3,0-2.7,0-4,0c-0.1-0.8-0.2-1.5-0.2-2.2c1.3-0.1,2.7-0.2,4.1-0.3c0-0.3,0-0.7,0-1c-1.2,0-2.4,0-3.5,0
	c-0.2-0.7-0.2-1.5-0.2-2.2c1.2-0.1,2.4-0.2,3.7-0.3c0-0.6,0-1.2,0-1.9c-1.6-0.1-2.9-0.3-4.1-0.6c-0.1-0.3-0.1-0.7-0.1-1
	c0-0.5,0.1-0.8,0.2-0.9c1.3,0,2.7,0.1,4,0.2c0-0.5,0-1.1,0-1.6c-3.1-0.1-5.7-0.3-8-0.5c-0.1-0.2-0.1-0.6-0.1-1.1
	c0-0.3,0.1-0.6,0.2-1c2.7,0,5.3,0.1,7.9,0.2c0-0.6,0.1-1.2,0.1-1.7c-2-0.2-4-0.5-6.1-0.7c0-0.9,0.1-1.5,0.2-2c1.8,0,3.8,0.1,6.1,0.2
	c0-0.6,0.1-1.3,0.1-2c0.4,0,0.8,0,1.3,0c0.5,0,0.9,0.1,1.3,0.2c0,0.7,0,1.4,0,2.2C168.6,15.5,170.5,15.7,172.6,16z M170,21.8
	c-1.1,0-2.3,0-3.3,0c0,0.4,0,0.9,0,1.4c1.1,0,2.2,0,3.3,0C170,22.8,170,22.3,170,21.8z M166.8,17.9c0,0.5,0,1,0,1.5
	c1.1,0,2.2,0.1,3.3,0.2c0-0.5,0-1.1,0-1.6C168.9,18,167.9,17.9,166.8,17.9z"/>
<path class="st3" d="M178.9,26.2c-0.5,0-1,0-1.6-0.1c0-0.4,0-0.8,0-1.3c0-0.3,0-0.6,0.1-0.9c0.6,0,1.2,0,1.8,0
	c0.2-1.9,0.5-3.6,0.8-5.3c0.4-0.1,0.9-0.2,1.4-0.2c0.5,0.1,0.9,0.2,1.2,0.3c-0.1,1.6-0.3,3.3-0.5,5.1c0.9,0,1.8,0.1,2.8,0.2
	c-0.3-0.6-0.6-1.4-0.9-2.2c0.5-0.4,1.2-0.8,1.9-0.9c0.7,1.1,1.3,2.2,1.7,3.1c0.7,0.1,1.5,0.2,2.3,0.2c-0.1-1.3-0.2-2.7-0.2-4.1
	c-3.2-0.2-4.8-0.4-4.9-0.6c0-0.8,0.1-1.5,0.3-2.1c2,0,4.4,0.1,7.2,0.4c0.2,2.2,0.3,4.4,0.3,6.6c0.7,0.1,1.4,0.1,2.1,0.1
	c0,0.8-0.1,1.5-0.2,2.4c-0.6,0-1.2,0-1.8,0c0.1,1.6,0.1,3,0.1,4.5c-1.1,0.3-2.3,0.6-3.8,0.7c-0.3-0.4-0.5-1-0.5-1.6
	c0.5-0.2,1.1-0.4,1.9-0.5c-0.1-1-0.2-2.1-0.3-3.1c-1.5,0-3-0.1-4.5-0.2c0.6,0.6,1.2,1.4,1.7,2.2c-0.5,0.5-1.2,1-2,1.4
	c-0.7-0.7-1.3-1.6-1.8-2.5c0.5-0.4,1.1-0.8,1.7-1.1c-1.1-0.1-2.2-0.2-3.3-0.2c-0.2,1.5-0.4,3-0.7,4.5c-0.2,0.1-0.6,0.1-1.3,0.1
	c-0.5,0-0.9-0.1-1.3-0.3C178.6,29.3,178.8,27.8,178.9,26.2z M189.6,12.2c0.3,0.8,0.5,1.6,0.5,2.3c-3.5,0.9-7.1,1.4-11,1.7
	c-0.3-0.8-0.5-1.6-0.5-2.4C181.9,13.1,185.6,12.5,189.6,12.2z M187.8,41.2c3.3,0,6.9,0,10.8,0c0.5,0,0.9,0,1.4,0
	c0.2-1.5,0.3-2.9,0.4-4.2c-0.7-0.1-1.5-0.2-2.2-0.3c0,1-0.1,2.1-0.2,3.2c-0.3,0-0.7,0-1.2,0c-0.5,0-0.9-0.1-1.1-0.2
	c0-1.3,0-2.5,0.1-3.4c-0.7-0.1-1.3-0.2-2-0.3c0,1.1-0.1,2.3-0.2,3.7c-0.3,0.1-0.7,0.2-1.2,0.2c-0.5,0-0.9-0.1-1.2-0.3
	c0-1.5,0-2.8,0.1-3.8c-0.6-0.1-1.2-0.2-1.8-0.3c0.1-0.8,0.2-1.6,0.3-2.2c2.1,0.1,4.3,0.3,6.6,0.7c3.2,0.4,5.6,0.8,7.2,1.2
	c-0.1,1.6-0.4,3.6-0.9,6c0.8,0.1,1.4,0.2,2,0.2c0.1,0.3,0.2,0.8,0.2,1.3c0,0.6-0.1,1-0.2,1.2c-0.4,0.2-2.4,0.3-6.1,0.3
	c-8.9,0-13.7-0.1-14.5-0.3c-0.1-0.3-0.2-0.7-0.2-1.2c0-0.5,0.1-0.9,0.2-1.3c0.4-0.1,0.7-0.2,1-0.2c-0.1-0.7-0.2-1.5-0.2-2.4
	c0-1.5,0.1-2.8,0.4-4.1c0.4-0.1,0.8-0.2,1.1-0.2c0.4,0,0.8,0.1,1.1,0.2c0.2,1.6,0.2,2.9,0.2,4.1C187.9,39.7,187.9,40.5,187.8,41.2z
	 M198.6,14.1c1.9-0.1,4.1-0.2,6.6-0.2c0.4,1.6,0.7,3.3,1,5c0.5,0,1.1,0,1.6,0c0.3,0.4,0.4,0.9,0.4,1.6c-1.1,0.3-2.4,0.5-4,0.6
	c-0.5-1.3-0.9-2.9-1.2-4.7c-1.6,0.1-3.1,0.2-4.7,0.2c-0.2,1.5-0.4,2.9-0.8,4.4c-0.7,0-1.5-0.1-2.3-0.3c0-2.4,0.4-4.9,1.1-7.5
	c0.7,0,1.5,0.1,2.2,0.2C198.6,13.6,198.6,13.9,198.6,14.1z M200.4,30.1c-1.2-0.3-2.4-0.6-3.6-0.9c0.2-0.9,0.5-1.8,0.8-2.5
	c1.3,0.3,2.5,0.7,3.7,1c0.3-0.7,0.5-1.5,0.8-2.2c-2.7-0.4-4.6-0.8-5.6-1c-0.1-0.4-0.1-0.8-0.1-1.2c0-0.3,0-0.6,0.1-0.9
	c3.3,0,6.5,0.5,9.5,1.4c-0.5,1.6-1.1,3-1.7,4.5c1.1,0.3,2.2,0.7,3.3,1c-0.2,0.8-0.5,1.6-0.9,2.3c-1.2-0.2-2.5-0.5-3.7-0.7
	c-0.4,0.8-0.8,1.6-1.3,2.3c-0.9-0.2-1.6-0.5-1.9-0.9C199.9,31.4,200.2,30.7,200.4,30.1z"/>
<g>
	<path class="st3" d="M130.5,45.6c0.8,0.2,1.2,0.7,1.1,1.5c-0.1,0.8-1.1,4-3,9.5c5.8-1,10.8-1.7,15-2.1c1,0,1.6,0.6,1.8,1.8
		c-0.1,1-0.6,1.5-1.5,1.7c-4.2,0.4-8.9,1-14,1.7c-0.9,0.1-1.7,0.2-2.5,0.4c-2.1,5.7-3.8,10.6-5.1,14.6c-0.2,1.1-0.6,1.8-1.2,1.9
		c-0.8,0.2-1.5-0.1-2-0.9c-0.3-0.6-0.1-1.3,0.4-2c1.5-3.4,3-7.4,4.6-12.2c0.1-0.4,0.2-0.7,0.3-1c-2.8,0.5-5.4,0.9-7.6,1.4
		c-1.2,0.2-1.9-0.2-2.2-1.2c0-0.7,0.2-1.1,0.8-1.5c2.2-0.7,5.6-1.4,10.2-2.1c1.2-3.4,2.5-7.1,3.8-10.8
		C129.6,45.8,130,45.6,130.5,45.6z M129.9,58.8c0.3-0.1,0.8,0,1.4,0.2c5.2,3.2,14.5,10.8,17.9,13.6c0.9,0.5,1.4,1.1,1.3,2
		c0,1-0.4,1.5-1.3,1.7c-0.5,0-1.1-0.2-1.9-0.8c-3-2.8-12.1-10.6-17.2-14.2c-0.6-0.3-1.9-1.5-2-2C128.1,58.5,129.2,59,129.9,58.8z"/>
</g>
<g>
	<path class="st4" d="M247,40c0,0-16.7-3.7-18.9,7.8C228.1,47.8,241.7,55.6,247,40z"/>
	<path class="st3" d="M235.6,50.8C235.6,50.8,235.6,50.8,235.6,50.8c-4.3,0-7.9-2-8-2.1l-0.7-0.4l0.1-0.8c1.1-5.9,6.1-9.2,14.1-9.2
		c3.3,0,5.9,0.6,6,0.6l1.2,0.3l-0.4,1.1C245.1,49,239.7,50.8,235.6,50.8z M229.4,47.2c1.1,0.5,3.6,1.5,6.2,1.5c0,0,0,0,0,0
		c4.5,0,7.8-2.6,9.9-7.8c-1-0.1-2.6-0.3-4.3-0.3C236.6,40.5,230.9,41.7,229.4,47.2z"/>
</g>
<path class="st3" d="M156,61.9c-1.6,0-2.8-0.1-3.6-0.2c-0.1-0.5-0.2-1-0.2-1.4c0-0.5,0-1,0.1-1.4c1.1,0,2.3-0.1,3.6-0.2
	c0-1.9,0-3.8,0-5.6c0.2-0.1,0.6-0.2,1.4-0.2c0.7,0,1.1,0.1,1.4,0.2c0.2,1.9,0.3,3.7,0.4,5.6c0.5,0,0.9,0,1.4,0
	c1.1,0,1.9,0.1,2.4,0.3c0.1,0.4,0.1,0.8,0.1,1.2c0,0.5,0,0.9,0,1.4c-0.2,0.2-1.1,0.3-2.6,0.3c-0.4,0-0.8,0-1.1,0
	c0,1.1,0.1,2.3,0.1,3.6c1.2,0.5,2.3,1.2,3.4,2c-0.2,0.8-0.6,1.6-1.1,2.4c-0.8-0.3-1.6-0.7-2.2-1c0,1.9,0,3.8,0,5.8
	c-0.4,0.1-0.9,0.1-1.5,0.1c-0.8,0-1.3,0-1.5-0.1c-0.1-2.1-0.2-4.1-0.3-6c-0.9,0.7-2,1.4-3.2,2.2c-0.7-0.8-1.3-1.6-1.6-2.4
	c1.3-1.3,2.9-2.5,4.7-3.6C156,64,156,62.9,156,61.9z M166.4,50.1c0.5,0,1,0.1,1.4,0.2c0,2.5-0.1,5.3-0.4,8.3
	c-0.3,0.1-0.8,0.2-1.5,0.2c-0.7,0-1.1-0.1-1.5-0.3c0-3.6,0.2-6.4,0.5-8.2C165.3,50.1,165.8,50.1,166.4,50.1z M172.2,68.9
	c3.8,0,7.6,0.1,11.3,0.3c0-1.3,0-2.4,0-3.6c-0.8,0-1.6-0.1-2.3-0.2c0,0.9-0.1,1.9-0.2,2.9c-0.3,0.1-0.7,0.2-1.3,0.2
	c-0.6,0-1-0.1-1.2-0.4c0-1.1,0-2.1,0-2.9c-0.6,0-1.2,0-1.8,0c0,0.8-0.1,1.7-0.3,2.9c-0.3,0.1-0.7,0.2-1.2,0.2
	c-0.5,0-0.9-0.1-1.2-0.4c0-1.3,0.1-2.3,0.2-3c-0.4,0-0.8-0.1-1.2-0.2c-0.1-0.3-0.1-0.7-0.1-1.2c0-0.5,0-0.9,0.1-1.2
	c4.4,0.1,8.9,0.4,13.6,0.7c0,2.3-0.1,4.4-0.3,6.3c0.6,0,1.2,0,1.8,0c0,0.4,0,0.8,0,1.2c0,0.7,0,1.1-0.1,1.3
	c-8.7,0-15.7-0.1-20.9-0.3c-0.1-0.2-0.1-0.6-0.1-1.3c0-0.5,0.1-0.9,0.2-1.4c0.7,0,1.4,0,2.2,0c-0.2-1.9-0.4-3.6-0.4-5.3
	c0.3-0.1,0.8-0.2,1.4-0.3c0.6,0,1.1,0.1,1.3,0.2C171.9,65.1,172.1,66.9,172.2,68.9z M169.8,57.1c0.9,0.4,1.7,0.9,2.5,1.5
	c-0.6,1.3-1.3,2.5-2,3.6c-1-0.3-1.8-0.8-2.5-1.5C168.4,59.3,169,58.1,169.8,57.1z M176.7,50.6c-0.1-1.3-0.1-2.5-0.1-3.8
	c0.5-0.1,1.1-0.2,1.7-0.2c0.6,0,1.1,0,1.5,0c0,1.4,0,2.7,0,3.9c3.3,0.1,6.6,0.3,9.8,0.5c0.5,2.5,0.7,4.9,0.7,7.1
	c-0.3,0.1-0.7,0.2-1.2,0.2c-0.4,0-0.9,0-1.5,0c-0.3-1.1-0.6-2.6-0.9-4.7c-5.6,0-11.2-0.2-16.8-0.5c-0.1-0.4-0.2-0.9-0.2-1.4
	c0-0.5,0-0.9,0.1-1.3C172.2,50.4,174.5,50.5,176.7,50.6z M180.4,75.9c0.5,2.4,0.8,4.3,0.8,5.8c-1.1,0.2-2.1,0.3-3.1,0.3
	c-1.4,0-2.3-0.2-2.7-0.5c-0.1-0.1-0.1-0.4-0.1-0.9c0-0.4,0-0.8,0.1-1c0.9,0,1.7,0,2.6,0c-0.1-1.4-0.2-2.7-0.3-3.9
	c-1.7,0-3.5-0.1-5.2-0.2c0-0.4,0-0.9,0-1.3c0-0.5,0-0.9,0.1-1.2c3.8,0,8.3,0.2,13.4,0.5c0,0.8-0.1,1.7-0.3,2.6
	C183.9,76.1,182.1,76,180.4,75.9z M176.5,55.7c0.2,1.1,0.3,2.3,0.4,3.6c1.2,0,2.4-0.1,3.5-0.2c0.1,0.6,0.2,1.3,0.2,2.1
	c-1.9,0.3-3.9,0.5-6.2,0.5c-0.4-0.9-0.6-2.9-0.6-6C174.7,55.7,175.6,55.7,176.5,55.7z M180.9,55.2c0.4,0.8,0.7,1.6,0.9,2.4
	c-0.9,0.3-1.8,0.5-2.6,0.5c-0.3-0.8-0.5-1.6-0.6-2.4C179.4,55.4,180.2,55.2,180.9,55.2z M185.2,57.2c0.4,0.9,0.7,1.8,0.9,2.8
	c-0.8,0.3-1.7,0.5-2.5,0.5c-0.4-0.9-0.6-1.8-0.8-2.7C183.6,57.6,184.4,57.4,185.2,57.2z"/>
<path class="st3" d="M197.6,59.5c-2.1,0-3.7-0.1-4.7-0.3c-0.1-0.4-0.2-0.8-0.2-1.2c0-0.5,0-1,0.1-1.4c1.4,0,2.9,0,4.7,0
	c0-1.4,0-2.7,0-3.9c0.2-0.1,0.7-0.2,1.5-0.3c0.7,0,1.1,0,1.4,0.1c0.1,1.4,0.2,2.7,0.3,4.1c1.7,0,2.9,0.1,3.6,0.2c0,0.4,0,0.8,0,1.2
	c0,0.5,0,0.9,0,1.2c-0.3,0.2-1.4,0.3-3.5,0.3c0.1,1.3,0.1,2.5,0.2,3.8c1.3,0.5,2.6,1.2,3.8,2c-0.2,0.8-0.6,1.6-1.1,2.4
	c-1-0.3-1.9-0.7-2.7-1c0.1,1.8,0.1,3.7,0.1,5.8c-0.3,0.1-0.8,0.1-1.4,0.1c-0.7,0-1.2,0-1.5-0.1c-0.2-2.1-0.3-4.1-0.4-6.2
	c-1,0.8-2.3,1.6-3.8,2.4c-0.7-0.8-1.2-1.6-1.6-2.4c1.5-1.3,3.2-2.4,5.1-3.6C197.6,61.6,197.6,60.5,197.6,59.5z M208.3,52.7
	c0.5,0,0.9,0.1,1.4,0.2c0,2.5-0.1,5.3-0.4,8.2c-0.3,0.1-0.8,0.2-1.4,0.2c-0.7,0-1.1-0.1-1.4-0.3c0-3.5,0.1-6.3,0.4-8.3
	C207.3,52.7,207.7,52.7,208.3,52.7z M215.4,49c0,0.6,0,1.2,0,1.9c-0.3,0.4-0.8,0.6-1.4,0.6c-0.5,0-0.9-0.1-1.3-0.4
	c0-0.7-0.1-1.4-0.1-2.2c-1.7-0.1-3.3-0.2-5-0.2c0-0.5,0-1.1,0-1.5c0-0.3,0-0.7,0.1-1.2c1.5,0,3.1,0,4.8,0c0-0.8,0-1.7,0-2.6
	c0.3-0.1,0.8-0.2,1.4-0.3c0.7,0,1.2,0,1.5,0.1c0,0.9,0,1.9,0,2.8c2.2,0.1,4.5,0.2,7,0.2c0.2-0.9,0.4-1.9,0.7-2.9
	c0.9,0.1,1.8,0.3,2.5,0.5c-0.1,0.8-0.3,1.7-0.4,2.6c1.6,0,3.1,0.1,4.7,0.2c0,0.9-0.1,1.8-0.3,2.7c-1.7,0-3.3,0-5,0
	c-0.2,0.8-0.4,1.7-0.6,2.6c-1,0-1.8-0.2-2.6-0.6c0.1-0.7,0.2-1.3,0.3-2.1C219.6,49,217.5,49,215.4,49z M221,65.6
	c-2.3,1.5-6,3.3-11,5.5c-0.5-0.7-0.9-1.4-1.2-2.2c2.2-1.3,4.4-2.5,6.5-3.6c-1.6-0.1-3.2-0.2-4.8-0.5c0-0.8,0.1-1.6,0.3-2.4
	c5.6,0.1,11.1,0.5,16.6,1c0,0.8-0.1,1.5-0.3,2.2C225.1,65.6,223.1,65.6,221,65.6z M212.2,70.9c0.7,0.6,1.3,1.2,1.9,1.7
	c-0.9,1.1-2,2.1-3.2,3.1c-0.7-0.6-1.3-1.2-1.8-1.9C210.1,72.7,211.2,71.7,212.2,70.9z M211.8,52.9c6.2,0,12.3,0.2,18.2,0.6
	c0.5,2.5,0.7,4.9,0.7,7.2c-0.3,0.1-0.7,0.2-1.2,0.2c-0.4,0-0.9-0.1-1.5-0.2c-0.3-0.9-0.6-2.4-0.9-4.5c-5,0-10.1-0.2-15.3-0.6
	c-0.1-0.3-0.2-0.8-0.2-1.4C211.8,53.7,211.8,53.3,211.8,52.9z M215.3,74c0.7,0.5,1.3,1.1,1.9,1.7c-0.9,1-2,2-3.2,2.9
	c-0.7-0.5-1.3-1.2-1.8-1.9C213.3,75.7,214.3,74.8,215.3,74z M214.3,57.9c2.9,0,6.4,0.2,10.3,0.5c0,0.8-0.1,1.7-0.3,2.6
	c-3.4,0-6.8-0.2-10.2-0.5c0-0.5,0-0.9,0-1.4C214.2,58.7,214.2,58.3,214.3,57.9z M220.7,68c1.2,3.5,2,7.1,2.5,10.8
	c-0.7,0.3-1.7,0.5-2.9,0.5c-0.9,0-1.7-0.1-2.5-0.2c-0.1-0.4-0.1-0.7-0.1-1c0-0.5,0-0.9,0-1.2c0.7,0,1.5,0,2.2,0
	c-0.6-2.9-1.3-5.6-2.3-8.2C218.6,68.2,219.7,68,220.7,68z"/>
<polygon class="st3" points="240.3,42.7 240.9,44.6 228.9,48.2 227.9,46.3 "/>
<polygon class="st3" points="220.8,69.7 221.6,72.7 228.8,71 227.9,68.1 "/>
<polygon class="st3" points="221.6,72.3 221.6,75.1 232.5,77.7 232.9,74.9 "/>
</svg>
