<?xml version="1.0" encoding="utf-8"?>
<!-- Generator: Adobe Illustrator 21.0.0, SVG Export Plug-In . SVG Version: 6.00 Build 0)  -->
<svg version="1.1" id="Layer_1" xmlns="http://www.w3.org/2000/svg" xmlns:xlink="http://www.w3.org/1999/xlink" x="0px" y="0px"
	 viewBox="0 0 180 180" style="enable-background:new 0 0 180 180;" xml:space="preserve">
<style type="text/css">
	.st0{fill:#4391BD;}
</style>
<path class="st0" d="M127.1,2.2H52.5C24.4,2.2,1.5,25,1.5,53.2v74.6c0,28.1,22.8,50.9,50.9,50.9h74.6c28.1,0,50.9-22.8,50.9-50.9
	V53.1C178,25,155.2,2.2,127.1,2.2 M161.8,129c0,18.7-15.2,33.8-33.8,33.8H51.7c-18.6,0-33.8-15.1-33.8-33.8V52.6
	c0-18.7,15.1-33.8,33.8-33.8H128c18.6,0,33.8,15.1,33.8,33.8V129z"/>
<path class="st0" d="M89.8,45.1c-25.3,0-45.8,20.5-45.8,45.8s20.5,45.8,45.8,45.8s45.8-20.5,45.8-45.8S115.1,45.1,89.8,45.1
	 M89.8,120.5c-16.4,0-29.6-13.3-29.6-29.6c0-16.4,13.3-29.6,29.6-29.6c16.4,0,29.6,13.3,29.6,29.6S106.3,120.5,89.8,120.5"/>
<path class="st0" d="M137.1,32.7c-5.9,0-10.7,4.8-10.7,10.7s4.8,10.7,10.7,10.7c5.9,0,10.7-4.8,10.7-10.7
	C147.7,37.5,143,32.7,137.1,32.7"/>
</svg>
